<svg width="19" height="19" fill="none" xmlns="http://www.w3.org/2000/svg"><path d="M9.486 4.62a4.854 4.854 0 00-4.862 4.862 4.854 4.854 0 004.862 4.862 4.854 4.854 0 004.862-4.862A4.854 4.854 0 009.486 4.62zm0 8.023a3.167 3.167 0 01-3.16-3.161 3.164 3.164 0 013.16-3.161 3.164 3.164 0 013.161 3.161 3.167 3.167 0 01-3.16 3.161zm6.195-8.222a1.131 1.131 0 01-1.764.943 1.134 1.134 0 111.764-.943zm3.22 1.151c-.071-1.52-.418-2.865-1.531-3.974C16.26.49 14.915.143 13.396.068c-1.565-.09-6.258-.09-7.824 0-1.515.072-2.86.419-3.974 1.527C.486 2.703.143 4.05.068 5.568c-.09 1.565-.09 6.258 0 7.824.072 1.52.419 2.865 1.531 3.974 1.113 1.108 2.455 1.455 3.974 1.531 1.566.09 6.259.09 7.824 0 1.52-.072 2.865-.418 3.974-1.531 1.108-1.11 1.455-2.455 1.532-3.974.088-1.566.088-6.254 0-7.82zm-2.022 9.5a3.2 3.2 0 01-1.803 1.803c-1.248.495-4.21.38-5.59.38s-4.346.11-5.59-.38a3.201 3.201 0 01-1.802-1.803c-.495-1.248-.381-4.21-.381-5.59s-.11-4.346.38-5.59a3.2 3.2 0 011.803-1.803c1.249-.495 4.21-.38 5.59-.38s4.346-.11 5.59.38a3.2 3.2 0 011.803 1.803c.495 1.248.38 4.21.38 5.59s.115 4.346-.38 5.59z" fill="currentColor"/></svg>