<svg width="19" height="16" fill="none" xmlns="http://www.w3.org/2000/svg"><path d="M17.047 3.846c.012.168.012.338.012.506 0 5.148-3.918 11.08-11.08 11.08-2.205 0-4.255-.64-5.979-1.748.314.036.615.048.94.048a7.8 7.8 0 004.835-1.664 3.901 3.901 0 01-3.64-2.7 5 5 0 00.734.06c.35 0 .7-.049 1.025-.133A3.895 3.895 0 01.772 5.473v-.048c.54.301 1.143.47 1.76.494A3.891 3.891 0 01.796 2.676c0-.723.193-1.386.53-1.965a11.069 11.069 0 008.03 4.075c-.06-.29-.097-.59-.097-.892A3.892 3.892 0 0113.153 0c1.12 0 2.134.47 2.845 1.23A7.666 7.666 0 0018.47.29c-.29.9-.9 1.662-1.712 2.145A7.816 7.816 0 0019 1.832a8.37 8.37 0 01-1.953 2.014z" fill="currentColor"/></svg>